<svg width="1009" height="221" viewBox="0 0 1009 221" fill="none" xmlns="http://www.w3.org/2000/svg">
<path d="M0.8 67.8L20.6 59.6H21V83.8C22.4667 79.9333 24.4 76.5333 26.8 73.6C29.2 70.5333 32 68 35.2 66C38.4 63.8667 41.8 62.2667 45.4 61.2C49.1333 60.1333 52.8667 59.6 56.6 59.6C61.9333 59.6 67.2 60.7333 72.4 63C77.7333 65.1333 82.4667 68.4667 86.6 73C90.7333 77.5333 94.0667 83.3333 96.6 90.4C99.1333 97.4667 100.4 105.8 100.4 115.4C100.4 121.667 99.3333 128 97.2 134.4C95.0667 140.8 92 146.667 88 152C84.1333 157.2 79.4 161.6 73.8 165.2C68.2 168.667 61.9333 170.667 55 171.2C50.8667 171.6 47.2667 171.4 44.2 170.6C41.1333 169.933 38.2667 168.867 35.6 167.4C33.0667 165.933 30.6 164.2 28.2 162.2C25.9333 160.067 23.5333 157.733 21 155.2V186.6C21 188.867 20.9333 191.6 20.8 194.8C20.6667 198 20.7333 201.2 21 204.4C21.4 207.733 22 210.8 22.8 213.6C23.7333 216.533 25.2 218.8 27.2 220.4H3.8C5.4 219.2 6.73333 217.4 7.8 215C8.2 214.2 8.53333 212.8 8.8 210.8C9.2 208.933 9.4 205.667 9.4 201V103.4C9.4 98.8667 9.33333 95.1333 9.2 92.2C9.2 89.1333 9.13333 86.6667 9 84.8C8.86667 82.9333 8.73333 81.5333 8.6 80.6C8.46667 79.6667 8.33333 78.9333 8.2 78.4C7.66667 74.6667 6.26667 71.8 4 69.8C3.06667 68.8667 2 68.2 0.8 67.8ZM21 138.8C21.2667 141.867 21.8 144.8 22.6 147.6C23.4 150.4 24.5333 153.067 26 155.6C28.8 161.067 32.8 164.933 38 167.2C43.2 169.467 48.8 170.267 54.8 169.6C60.8 169.067 65.8 166.933 69.8 163.2C73.9333 159.467 77.2 154.933 79.6 149.6C82.1333 144.133 83.9333 138.4 85 132.4C86.0667 126.267 86.6 120.6 86.6 115.4C86.6 107 85.4 99.7333 83 93.6C80.7333 87.4667 77.7333 82.3333 74 78.2C70.2667 74.0667 66.0667 71 61.4 69C56.8667 67 52.3333 66 47.8 66C41.1333 66 35.2 68.0667 30 72.2C24.9333 76.3333 21.9333 82.5333 21 90.8V138.8ZM107.831 67.8L127.631 59.6H128.031V83.8C129.498 79.9333 131.431 76.5333 133.831 73.6C136.231 70.5333 139.031 68 142.231 66C145.431 63.8667 148.831 62.2667 152.431 61.2C156.165 60.1333 159.898 59.6 163.631 59.6C168.965 59.6 174.231 60.7333 179.431 63C184.765 65.1333 189.498 68.4667 193.631 73C197.765 77.5333 201.098 83.3333 203.631 90.4C206.165 97.4667 207.431 105.8 207.431 115.4C207.431 121.667 206.365 128 204.231 134.4C202.098 140.8 199.031 146.667 195.031 152C191.165 157.2 186.431 161.6 180.831 165.2C175.231 168.667 168.965 170.667 162.031 171.2C157.898 171.6 154.298 171.4 151.231 170.6C148.165 169.933 145.298 168.867 142.631 167.4C140.098 165.933 137.631 164.2 135.231 162.2C132.965 160.067 130.565 157.733 128.031 155.2V186.6C128.031 188.867 127.965 191.6 127.831 194.8C127.698 198 127.765 201.2 128.031 204.4C128.431 207.733 129.031 210.8 129.831 213.6C130.765 216.533 132.231 218.8 134.231 220.4H110.831C112.431 219.2 113.765 217.4 114.831 215C115.231 214.2 115.565 212.8 115.831 210.8C116.231 208.933 116.431 205.667 116.431 201V103.4C116.431 98.8667 116.365 95.1333 116.231 92.2C116.231 89.1333 116.165 86.6667 116.031 84.8C115.898 82.9333 115.765 81.5333 115.631 80.6C115.498 79.6667 115.365 78.9333 115.231 78.4C114.698 74.6667 113.298 71.8 111.031 69.8C110.098 68.8667 109.031 68.2 107.831 67.8ZM128.031 138.8C128.298 141.867 128.831 144.8 129.631 147.6C130.431 150.4 131.565 153.067 133.031 155.6C135.831 161.067 139.831 164.933 145.031 167.2C150.231 169.467 155.831 170.267 161.831 169.6C167.831 169.067 172.831 166.933 176.831 163.2C180.965 159.467 184.231 154.933 186.631 149.6C189.165 144.133 190.965 138.4 192.031 132.4C193.098 126.267 193.631 120.6 193.631 115.4C193.631 107 192.431 99.7333 190.031 93.6C187.765 87.4667 184.765 82.3333 181.031 78.2C177.298 74.0667 173.098 71 168.431 69C163.898 67 159.365 66 154.831 66C148.165 66 142.231 68.0667 137.031 72.2C131.965 76.3333 128.965 82.5333 128.031 90.8V138.8ZM216.663 114.6C216.663 108.2 217.663 101.8 219.663 95.4C221.796 89 224.729 83.2 228.463 78C232.196 72.8 236.729 68.4667 242.063 65C247.529 61.5333 253.529 59.5333 260.063 59C264.996 58.3333 270.329 58.6667 276.063 60C281.929 61.3333 286.863 63.6 290.863 66.8C296.863 71.7333 299.863 76.7333 299.863 81.8C299.863 84.0667 299.263 85.6667 298.063 86.6C296.863 87.5333 295.129 88 292.863 88C290.463 88 288.729 87.6667 287.663 87C286.596 86.3333 285.863 85.6667 285.463 85C285.196 84.7333 284.863 84.1333 284.463 83.2C284.063 82.1333 283.663 80.1333 283.263 77.2C282.596 69.8667 280.129 65.0667 275.863 62.8C271.729 60.5333 266.263 59.8667 259.463 60.8C253.463 61.6 248.463 63.2667 244.463 65.8C240.462 68.3333 237.263 71.5333 234.863 75.4C232.463 79.1333 230.729 83.4667 229.663 88.4C228.596 93.2 228.063 98.4 228.063 104C228.063 118.4 231.529 131.133 238.462 142.2C242.196 147.933 246.863 152.333 252.463 155.4C258.196 158.467 264.063 160 270.063 160C276.196 160 281.863 158.267 287.063 154.8C292.263 151.2 295.996 145.6 298.263 138C298.529 137.733 298.929 137.6 299.463 137.6C299.996 137.867 300.129 138.133 299.863 138.4C298.396 143.333 296.263 147.8 293.463 151.8C290.796 155.667 287.663 159 284.063 161.8C280.596 164.467 276.796 166.533 272.663 168C268.663 169.333 264.529 170 260.263 170C254.796 170 249.463 168.867 244.263 166.6C239.063 164.2 234.263 160.533 229.863 155.6C221.063 145.333 216.663 131.667 216.663 114.6ZM308.069 119.2C308.069 103.733 312.935 89.8667 322.669 77.6C326.135 72.6667 330.602 68.4 336.069 64.8C341.535 61.2 347.335 59.0667 353.469 58.4C357.469 58 361.002 58.2 364.069 59C367.269 59.6667 370.135 60.7333 372.669 62.2C375.335 63.6667 377.802 65.4667 380.069 67.6C382.469 69.7333 384.935 72.0667 387.469 74.6V43.2C387.469 38.8 387.402 35.1333 387.269 32.2C387.269 29.2667 387.202 26.8667 387.069 25C386.935 23.1333 386.802 21.7333 386.669 20.8C386.535 19.8667 386.402 19.1333 386.269 18.6C386.002 16.4667 385.469 14.7333 384.669 13.4C384.002 12.0667 383.135 10.9333 382.069 10C380.735 9.06666 379.669 8.46666 378.869 8.2L398.469 -5.72205e-06H399.069V126.2C399.069 130.733 399.069 134.533 399.069 137.6C399.202 140.533 399.269 143 399.269 145C399.402 146.867 399.469 148.267 399.469 149.2C399.602 150.133 399.735 150.867 399.869 151.4C400.935 155.4 402.469 158.2 404.469 159.8C405.135 160.6 406.202 161.267 407.669 161.8L387.869 170H387.469V145.8C384.535 153.933 379.802 160 373.269 164C366.735 167.867 359.669 169.8 352.069 169.8C345.002 169.8 338.735 168.4 333.269 165.6C327.802 162.8 323.202 159.067 319.469 154.4C315.735 149.733 312.869 144.333 310.869 138.2C309.002 132.067 308.069 125.733 308.069 119.2ZM333.669 150.6C337.535 155.267 341.735 158.667 346.269 160.8C350.802 162.933 355.269 164 359.669 164C363.135 164 366.402 163.4 369.469 162.2C372.669 161 375.535 159.333 378.069 157.2C380.602 154.933 382.669 152.267 384.269 149.2C386.002 146 387.069 142.533 387.469 138.8V91.2C387.069 88.1333 386.469 85.2 385.669 82.4C385.002 79.6 383.935 76.8667 382.469 74.2C379.669 68.7333 375.669 64.9333 370.469 62.8C365.269 60.5333 359.669 59.6 353.669 60C347.535 60.5333 342.402 62.4667 338.269 65.8C334.269 69 331.002 73 328.469 77.8C326.069 82.4667 324.335 87.6 323.269 93.2C322.335 98.8 321.869 104.2 321.869 109.4C321.869 118.2 322.869 126.067 324.869 133C326.869 139.8 329.802 145.667 333.669 150.6ZM478.967 114.6C478.967 108.2 479.967 101.8 481.967 95.4C484.101 89 487.034 83.2 490.767 78C494.501 72.8 499.034 68.4667 504.367 65C509.834 61.5333 515.834 59.5333 522.367 59C527.301 58.3333 532.634 58.6667 538.367 60C544.234 61.3333 549.167 63.6 553.167 66.8C559.167 71.7333 562.167 76.7333 562.167 81.8C562.167 84.0667 561.567 85.6667 560.367 86.6C559.167 87.5333 557.434 88 555.167 88C552.767 88 551.034 87.6667 549.967 87C548.901 86.3333 548.167 85.6667 547.767 85C547.501 84.7333 547.167 84.1333 546.767 83.2C546.367 82.1333 545.967 80.1333 545.567 77.2C544.901 69.8667 542.434 65.0667 538.167 62.8C534.034 60.5333 528.567 59.8667 521.767 60.8C515.767 61.6 510.767 63.2667 506.767 65.8C502.767 68.3333 499.567 71.5333 497.167 75.4C494.767 79.1333 493.034 83.4667 491.967 88.4C490.901 93.2 490.367 98.4 490.367 104C490.367 118.4 493.834 131.133 500.767 142.2C504.501 147.933 509.167 152.333 514.767 155.4C520.501 158.467 526.367 160 532.367 160C538.501 160 544.167 158.267 549.367 154.8C554.567 151.2 558.301 145.6 560.567 138C560.834 137.733 561.234 137.6 561.767 137.6C562.301 137.867 562.434 138.133 562.167 138.4C560.701 143.333 558.567 147.8 555.767 151.8C553.101 155.667 549.967 159 546.367 161.8C542.901 164.467 539.101 166.533 534.967 168C530.967 169.333 526.834 170 522.567 170C517.101 170 511.767 168.867 506.567 166.6C501.367 164.2 496.567 160.533 492.167 155.6C483.367 145.333 478.967 131.667 478.967 114.6ZM587.173 -5.72205e-06H587.573V102.6C588.24 99.5333 589.107 96.2667 590.173 92.8C591.373 89.3333 592.907 86.0667 594.773 83C596.64 79.6667 598.907 76.5333 601.573 73.6C604.373 70.6667 607.373 68.1333 610.573 66C613.773 63.8667 617.04 62.2 620.373 61C623.84 59.6667 627.173 59 630.373 59C636.373 59 640.973 60.6667 644.173 64C647.507 67.2 649.907 71.2 651.373 76C652.973 80.6667 653.907 85.7333 654.173 91.2C654.44 96.5333 654.573 101.333 654.573 105.6V145.6C654.573 153.333 655.24 158.733 656.573 161.8C657.107 163.4 658.173 165 659.773 166.6H637.373C639.773 164.6 641.373 161.8 642.173 158.2V157.8C642.307 157.267 642.44 156.2 642.573 154.6C642.707 153 642.773 150 642.773 145.6V105.6C642.773 98.9333 642.573 93.5333 642.173 89.4C641.773 85.2667 641.173 82.0667 640.373 79.8C638.64 74.6 636.24 70.8667 633.173 68.6C630.107 66.3333 626.773 65.2 623.173 65.2C618.24 65.2 613.24 66.9333 608.173 70.4C603.24 73.8667 599.24 78.3333 596.173 83.8C593.373 88.8667 591.307 94.1333 589.973 99.6C588.64 104.933 587.84 109.667 587.573 113.8V145.6C587.573 151.067 587.773 154.867 588.173 157C588.573 159.133 588.907 160.667 589.173 161.6C590.107 163.6 591.373 165.267 592.973 166.6H570.373C571.04 165.933 571.707 165.133 572.373 164.2C573.04 163.267 573.573 162.267 573.973 161.2C574.507 160.267 574.907 158.733 575.173 156.6C575.573 154.333 575.773 150.667 575.773 145.6V43.2C575.773 38.8 575.707 35.1333 575.573 32.2C575.573 29.2667 575.507 26.8667 575.373 25C575.373 23.1333 575.307 21.7333 575.173 20.8C575.173 19.8667 575.107 19.1333 574.973 18.6C574.307 16.3333 573.373 14.2667 572.173 12.4C571.107 10.4 569.44 8.99999 567.173 8.2L587.173 -5.72205e-06ZM666.448 62.4H683.448L683.648 129.6C683.648 132.933 683.848 136.6 684.248 140.6C684.782 144.6 685.715 148.333 687.048 151.8C688.515 155.133 690.582 158 693.248 160.4C695.915 162.667 699.448 163.8 703.848 163.8C709.182 163.8 714.448 162 719.648 158.4C724.848 154.8 728.982 150.333 732.048 145C733.782 141.933 735.182 138.733 736.248 135.4C737.448 132.067 738.382 128.867 739.048 125.8V83.4C739.048 77.8 738.848 74 738.448 72C738.048 69.8667 737.648 68.3333 737.248 67.4C736.182 65.1333 734.982 63.4667 733.648 62.4H750.648V125.4C750.648 127.667 750.582 130.667 750.448 134.4C750.448 138.133 750.648 141.867 751.048 145.6C751.582 149.2 752.448 152.533 753.648 155.6C754.982 158.533 756.982 160.467 759.648 161.4L739.248 169.8H739.048V132.2C738.382 134.467 737.582 136.733 736.648 139C735.715 141.267 734.582 143.533 733.248 145.8C731.382 149.133 729.048 152.267 726.248 155.2C723.582 158 720.582 160.533 717.248 162.8C713.915 164.933 710.448 166.667 706.848 168C703.382 169.2 699.915 169.8 696.448 169.8C691.115 169.8 686.848 168.6 683.648 166.2C680.448 163.667 677.982 160.533 676.248 156.8C674.515 153.067 673.315 149 672.648 144.6C672.115 140.067 671.848 135.733 671.848 131.6V83.4C671.848 75.5333 671.182 70.0667 669.848 67C669.582 66.0667 669.115 65.2667 668.448 64.6C667.782 63.8 667.115 63.0667 666.448 62.4ZM765.258 67.6L785.858 59.2V86.2C787.058 83.1333 788.924 80.0667 791.458 77C793.991 73.8 796.858 70.9333 800.058 68.4C803.258 65.7333 806.591 63.6 810.058 62C813.658 60.2667 817.124 59.4 820.458 59.4C823.391 59.4 825.791 60.2667 827.658 62C829.258 63.4667 830.191 65.3333 830.458 67.6C830.858 69.7333 830.258 71.6667 828.658 73.4C827.324 74.7333 825.858 75.4 824.258 75.4C823.058 75.4 821.858 75.1333 820.658 74.6C819.458 73.9333 818.324 73.1333 817.258 72.2C813.791 69.5333 810.391 68.2 807.058 68.2C804.524 68.2 802.124 68.8667 799.858 70.2C797.724 71.5333 795.724 73.2667 793.858 75.4C792.124 77.5333 790.524 79.9333 789.058 82.6C787.724 85.1333 786.658 87.7333 785.858 90.4V144.6C785.858 148.867 786.258 152.933 787.058 156.8C787.991 160.667 790.258 163.933 793.858 166.6H768.658C770.791 164.867 772.391 162.2 773.458 158.6C773.724 158.067 773.924 156.933 774.058 155.2C774.191 153.467 774.258 150.267 774.258 145.6V101.8C774.258 97.2667 774.191 93.6 774.058 90.8C774.058 87.8667 773.991 85.5333 773.858 83.8C773.858 81.9333 773.791 80.5333 773.658 79.6C773.658 78.6667 773.591 78 773.458 77.6C772.924 75.2 771.991 73.1333 770.658 71.4C769.458 69.5333 767.658 68.2667 765.258 67.6ZM827.991 114.6C827.991 108.2 828.991 101.8 830.991 95.4C833.124 89 836.057 83.2 839.791 78C843.524 72.8 848.057 68.4667 853.391 65C858.857 61.5333 864.857 59.5333 871.391 59C876.324 58.3333 881.657 58.6667 887.391 60C893.257 61.3333 898.191 63.6 902.191 66.8C908.191 71.7333 911.191 76.7333 911.191 81.8C911.191 84.0667 910.591 85.6667 909.391 86.6C908.191 87.5333 906.457 88 904.191 88C901.791 88 900.057 87.6667 898.991 87C897.924 86.3333 897.191 85.6667 896.791 85C896.524 84.7333 896.191 84.1333 895.791 83.2C895.391 82.1333 894.991 80.1333 894.591 77.2C893.924 69.8667 891.457 65.0667 887.191 62.8C883.057 60.5333 877.591 59.8667 870.791 60.8C864.791 61.6 859.791 63.2667 855.791 65.8C851.791 68.3333 848.591 71.5333 846.191 75.4C843.791 79.1333 842.057 83.4667 840.991 88.4C839.924 93.2 839.391 98.4 839.391 104C839.391 118.4 842.857 131.133 849.791 142.2C853.524 147.933 858.191 152.333 863.791 155.4C869.524 158.467 875.391 160 881.391 160C887.524 160 893.191 158.267 898.391 154.8C903.591 151.2 907.324 145.6 909.591 138C909.857 137.733 910.257 137.6 910.791 137.6C911.324 137.867 911.457 138.133 911.191 138.4C909.724 143.333 907.591 147.8 904.791 151.8C902.124 155.667 898.991 159 895.391 161.8C891.924 164.467 888.124 166.533 883.991 168C879.991 169.333 875.857 170 871.591 170C866.124 170 860.791 168.867 855.591 166.6C850.391 164.2 845.591 160.533 841.191 155.6C832.391 145.333 827.991 131.667 827.991 114.6ZM936.197 -5.72205e-06H936.597V102.6C937.264 99.5333 938.13 96.2667 939.197 92.8C940.397 89.3333 941.93 86.0667 943.797 83C945.664 79.6667 947.93 76.5333 950.597 73.6C953.397 70.6667 956.397 68.1333 959.597 66C962.797 63.8667 966.064 62.2 969.397 61C972.864 59.6667 976.197 59 979.397 59C985.397 59 989.997 60.6667 993.197 64C996.53 67.2 998.93 71.2 1000.4 76C1002 80.6667 1002.93 85.7333 1003.2 91.2C1003.46 96.5333 1003.6 101.333 1003.6 105.6V145.6C1003.6 153.333 1004.26 158.733 1005.6 161.8C1006.13 163.4 1007.2 165 1008.8 166.6H986.397C988.797 164.6 990.397 161.8 991.197 158.2V157.8C991.33 157.267 991.464 156.2 991.597 154.6C991.73 153 991.797 150 991.797 145.6V105.6C991.797 98.9333 991.597 93.5333 991.197 89.4C990.797 85.2667 990.197 82.0667 989.397 79.8C987.664 74.6 985.264 70.8667 982.197 68.6C979.13 66.3333 975.797 65.2 972.197 65.2C967.264 65.2 962.264 66.9333 957.197 70.4C952.264 73.8667 948.264 78.3333 945.197 83.8C942.397 88.8667 940.33 94.1333 938.997 99.6C937.664 104.933 936.864 109.667 936.597 113.8V145.6C936.597 151.067 936.797 154.867 937.197 157C937.597 159.133 937.93 160.667 938.197 161.6C939.13 163.6 940.397 165.267 941.997 166.6H919.397C920.064 165.933 920.73 165.133 921.397 164.2C922.064 163.267 922.597 162.267 922.997 161.2C923.53 160.267 923.93 158.733 924.197 156.6C924.597 154.333 924.797 150.667 924.797 145.6V43.2C924.797 38.8 924.73 35.1333 924.597 32.2C924.597 29.2667 924.53 26.8667 924.397 25C924.397 23.1333 924.33 21.7333 924.197 20.8C924.197 19.8667 924.13 19.1333 923.997 18.6C923.33 16.3333 922.397 14.2667 921.197 12.4C920.13 10.4 918.464 8.99999 916.197 8.2L936.197 -5.72205e-06Z" fill="white"/>
</svg>
